<?xml version="1.0" standalone="no"?>
<!DOCTYPE svg PUBLIC "-//W3C//DTD SVG 20010904//EN"
 "http://www.w3.org/TR/2001/REC-SVG-20010904/DTD/svg10.dtd">
<svg version="1.0" xmlns="http://www.w3.org/2000/svg"
 width="6634.000000pt" height="6634.000000pt" viewBox="0 0 6634.000000 6634.000000"
 preserveAspectRatio="xMidYMid meet">
<metadata>
Created by potrace 1.14, written by Peter Selinger 2001-2017
</metadata>
<g transform="translate(0.000000,6634.000000) scale(0.100000,-0.100000)"
fill="#000000" stroke="none">
<path d="M33876 62763 c-1 -1 -388 -5 -861 -8 -863 -6 -1307 -10 -2595 -20
-382 -3 -1017 -7 -1410 -10 -393 -3 -956 -7 -1250 -10 -609 -5 -2047 -16
-2587 -19 -200 -2 -364 -4 -366 -7 -2 -2 -26 -44 -52 -94 -26 -49 -70 -130
-97 -179 -27 -49 -54 -98 -59 -110 -5 -12 -17 -34 -27 -51 -10 -16 -42 -75
-72 -130 -29 -55 -56 -104 -60 -110 -8 -11 -116 -220 -305 -590 -70 -137 -171
-335 -225 -440 -99 -194 -247 -483 -475 -930 -330 -648 -404 -791 -555 -1080
-32 -60 -122 -234 -200 -385 -78 -151 -168 -324 -200 -385 -32 -60 -99 -191
-150 -290 -51 -99 -110 -211 -130 -250 -20 -38 -54 -103 -75 -142 l-37 -73
-1602 0 -1602 0 0 828 0 827 -4819 0 -4820 0 0 -825 0 -825 -2658 -3 c-1461
-1 -2657 -5 -2658 -10 -3 -21 -4 -30379 -1 -30392 3 -13 934 -15 8323 -15
l8319 0 0 -2272 0 -2273 23 -1 c12 -1 3802 -3 8422 -5 4620 -2 8431 -5 8468
-7 38 -2 71 1 74 5 2 5 11 4 19 -3 11 -9 17 -9 28 0 11 9 16 9 21 1 4 -7 16
-10 26 -7 11 3 19 2 19 -1 0 -4 -4361 -4368 -9690 -9697 l-9691 -9691 14268 1
14268 0 0 2273 c0 1251 -2 2278 -6 2283 -3 5 -3453 10 -8557 11 l-8552 3 9690
9690 9690 9690 6860 0 c6093 0 6860 2 6861 15 1 8 2 6852 2 15207 l2 15193
-1940 0 -1940 0 0 940 0 940 -357 1 c-197 0 -486 0 -643 0 -157 0 -843 0
-1525 0 l-1240 -1 0 -940 0 -940 -610 0 -610 0 0 1080 0 1080 -1883 0 -1883 0
0 -1067 c1 -588 0 -1074 -2 -1080 -3 -10 -410 -13 -1991 -13 l-1988 0 -30 58
c-16 31 -67 129 -112 217 -46 88 -107 205 -136 260 -55 105 -144 277 -290 560
-48 94 -105 202 -125 240 -21 39 -75 142 -120 230 -45 88 -106 205 -135 260
-29 55 -119 231 -200 390 -81 160 -194 380 -250 490 -346 677 -502 981 -710
1390 -132 258 -209 408 -263 505 -14 25 -40 74 -60 110 -19 36 -46 85 -60 110
-14 25 -37 68 -52 95 -41 78 -173 320 -176 324 -2 2 -160 5 -351 7 -192 1
-697 5 -1123 8 -426 4 -1056 8 -1400 11 -344 3 -929 7 -1300 10 -371 3 -985 7
-1365 10 -379 3 -910 7 -1180 10 -1732 14 -2885 21 -2889 18z"/>
</g>
</svg>
